<svg width="64" height="64" viewBox="0 0 64 64" fill="none" xmlns="http://www.w3.org/2000/svg">
<g clip-path="url(#clip0_2007_476)">
<path d="M50.2069 0H13.7931C6.17538 0 0 6.17538 0 13.7931V50.2069C0 57.8246 6.17538 64 13.7931 64H50.2069C57.8246 64 64 57.8246 64 50.2069V13.7931C64 6.17538 57.8246 0 50.2069 0Z" fill="#F5F1EA"/>
<path d="M29.877 42.0068C30.0914 42.6932 30.7151 43.1701 31.4336 43.1982C32.1521 43.2261 32.8109 42.7994 33.0781 42.1318L35.834 35.2412L36.5586 36.4014C36.8693 36.8982 37.414 37.2002 38 37.2002H48.7285C42.5892 45.943 32 52.5 32 52.5C32 52.5 19.7632 44.9242 13.9717 35.2002H23C23.6754 35.2002 24.2869 34.8003 24.5576 34.1816L26.2334 30.3496L29.877 42.0068ZM43.4004 16C48.6002 16.0002 53 20.1003 53 25.7002C53 28.4651 52.1558 31.1973 50.8076 33.7998H38.9424L36.9414 30.5986C36.602 30.0559 35.9863 29.7497 35.3486 29.8066C34.7507 29.8601 34.2285 30.2245 33.9697 30.7598L33.9219 30.8682L31.6963 36.4297L28.123 24.9932C27.9115 24.3161 27.301 23.8416 26.5928 23.8027C25.929 23.7665 25.3092 24.1196 25 24.6992L24.9424 24.8184L21.8877 31.7998H13C12.7611 31.7998 12.5334 31.8485 12.3271 31.9375C11.4935 29.9062 11 27.8128 11 25.7002C11 20.1003 15.3998 16.0002 20.5996 16C23.9996 16 27 17.8 32 23C37 17.8 40.0004 16 43.4004 16Z" fill="#BC392E"/>
</g>
<defs>
<clipPath id="clip0_2007_476">
<rect width="64" height="64" fill="white"/>
</clipPath>
</defs>
</svg>
